<svg xmlns="http://www.w3.org/2000/svg" xmlns:xlink="http://www.w3.org/1999/xlink" width="26" height="26" viewBox="0 0 26 26">
  <defs>
    <clipPath id="clip-path">
      <rect width="26" height="26" fill="none"/>
    </clipPath>
  </defs>
  <g id="Calendar" clip-path="url(#clip-path)">
    <rect id="Rectangle_557" data-name="Rectangle 557" width="25.326" height="25.326" fill="none"/>
    <path id="Path_149" data-name="Path 149" d="M3.25,8.125V22.75h19.5V8.125ZM21.125,3.25h3.25A1.535,1.535,0,0,1,26,4.875v19.5A1.535,1.535,0,0,1,24.375,26H1.625A1.535,1.535,0,0,1,0,24.375V4.875A1.535,1.535,0,0,1,1.625,3.25h3.25V1.625A1.535,1.535,0,0,1,6.5,0,1.535,1.535,0,0,1,8.125,1.625V3.25h9.75V1.625a1.625,1.625,0,0,1,3.25,0ZM19.5,19.5H16.25V16.25H19.5Zm-4.875,0h-3.25V16.25h3.25ZM19.5,14.625H16.25v-3.25H19.5Zm-4.875,0h-3.25v-3.25h3.25ZM9.75,19.5H6.5V16.25H9.75Z" fill="#ffe800" fill-rule="evenodd"/>
  </g>
</svg>
